<?xml version="1.0" encoding="UTF-8" standalone="no"?>
<!-- Generator: Adobe Illustrator 18.1.0, SVG Export Plug-In . SVG Version: 6.00 Build 0)  -->
<svg version="1.1" id="Layer_2" x="0px" y="0px" viewBox="0 0 1024 512" enable-background="new 0 0 512 512" xml:space="preserve" sodipodi:docname="etoast.svg" width="1024" height="512" inkscape:version="1.2.2 (b0a8486541, 2022-12-01)" inkscape:export-filename="etoast-export.svg" inkscape:export-xdpi="24" inkscape:export-ydpi="24" xmlns:inkscape="http://www.inkscape.org/namespaces/inkscape" xmlns:sodipodi="http://sodipodi.sourceforge.net/DTD/sodipodi-0.dtd" xmlns="http://www.w3.org/2000/svg" xmlns:svg="http://www.w3.org/2000/svg"><defs id="defs14"/><sodipodi:namedview id="namedview12" pagecolor="#ffffff" bordercolor="#666666" borderopacity="1.0" inkscape:showpageshadow="2" inkscape:pageopacity="0.0" inkscape:pagecheckerboard="0" inkscape:deskcolor="#d1d1d1" showgrid="false" showguides="true" inkscape:zoom="1.4183568" inkscape:cx="373.67185" inkscape:cy="216.44766" inkscape:window-width="3440" inkscape:window-height="1387" inkscape:window-x="-8" inkscape:window-y="-8" inkscape:window-maximized="1" inkscape:current-layer="Layer_2"><sodipodi:guide position="-636.65223,512" orientation="0,1" id="guide269" inkscape:locked="false" inkscape:label="" inkscape:color="rgb(0,134,229)"/><sodipodi:guide position="-437.8306,0" orientation="0,1" id="guide271" inkscape:locked="false" inkscape:label="" inkscape:color="rgb(0,134,229)"/><sodipodi:guide position="-23.971402,256" orientation="0,1" id="guide273" inkscape:locked="false" inkscape:label="" inkscape:color="rgb(0,134,229)"/></sodipodi:namedview>
<g id="g267" transform="translate(-19.741154)"><path fill="#ffb636" d="m 459.866,218.346 -186.7,0.701 c -4.619,0.017 -7.618,-4.861 -5.517,-8.975 L 370.845,8.024 c 3.103,-6.075 -4.493,-11.949 -9.592,-7.417 L 39.948,286.141 c -4.221,3.751 -1.602,10.732 4.045,10.78 l 170.444,1.457 c 4.443,0.038 7.391,4.619 5.583,8.679 L 133.317,501.73 c -2.688,6.035 4.709,11.501 9.689,7.16 L 463.943,229.165 c 4.307,-3.753 1.637,-10.84 -4.077,-10.819 z" id="path9"/></g>
<g id="g264" transform="translate(1155.7146,107.3723)"><g id="Layer_2-8" transform="translate(-657.0099,-107.06371)">
	<path fill="#bc7535" d="m 322.927,70.687 c -10.48,0 -20.778,0.501 -30.82,1.473 H 175.32 v 0.197 c 0,0 0,0 0,0 -0.14,0.004 -0.279,0.01 -0.419,0.014 -1.33,0.039 -2.657,0.084 -3.98,0.138 -0.525,0.022 -1.047,0.05 -1.571,0.075 -0.936,0.043 -1.873,0.086 -2.805,0.137 -0.6,0.033 -1.197,0.073 -1.796,0.109 -0.852,0.052 -1.704,0.102 -2.552,0.161 -0.627,0.043 -1.252,0.092 -1.877,0.139 -0.817,0.061 -1.633,0.122 -2.447,0.189 -0.64,0.053 -1.277,0.111 -1.915,0.168 -0.793,0.071 -1.585,0.141 -2.374,0.218 -0.647,0.063 -1.292,0.13 -1.938,0.196 -0.777,0.08 -1.553,0.162 -2.327,0.247 -0.646,0.072 -1.29,0.147 -1.934,0.223 -0.767,0.09 -1.534,0.183 -2.298,0.278 -0.644,0.081 -1.287,0.164 -1.929,0.249 -0.759,0.1 -1.516,0.203 -2.271,0.309 -0.638,0.089 -1.276,0.18 -1.912,0.274 -0.755,0.111 -1.507,0.225 -2.258,0.342 -0.63,0.098 -1.26,0.196 -1.888,0.298 -0.754,0.122 -1.504,0.248 -2.254,0.376 -0.617,0.105 -1.235,0.21 -1.849,0.319 -0.757,0.134 -1.511,0.274 -2.264,0.414 -0.602,0.112 -1.204,0.222 -1.803,0.337 -0.765,0.147 -1.525,0.301 -2.285,0.454 -0.58,0.117 -1.161,0.231 -1.739,0.352 -0.791,0.165 -1.577,0.337 -2.363,0.508 -0.539,0.117 -1.081,0.232 -1.618,0.352 -0.871,0.195 -1.734,0.399 -2.599,0.602 -0.445,0.105 -0.893,0.205 -1.336,0.312 -1.298,0.312 -2.588,0.633 -3.871,0.963 -0.074,0.019 -0.147,0.039 -0.221,0.059 -1.22,0.315 -2.434,0.638 -3.64,0.97 -0.433,0.119 -0.86,0.244 -1.292,0.365 -0.839,0.236 -1.679,0.471 -2.511,0.714 -0.502,0.147 -0.998,0.299 -1.497,0.449 -0.753,0.225 -1.506,0.45 -2.252,0.682 -0.53,0.165 -1.056,0.335 -1.583,0.503 -0.708,0.225 -1.416,0.451 -2.119,0.682 -0.539,0.177 -1.073,0.36 -1.609,0.54 -0.684,0.231 -1.367,0.462 -2.045,0.698 -0.539,0.188 -1.074,0.379 -1.609,0.57 -0.666,0.238 -1.331,0.477 -1.991,0.72 -0.537,0.198 -1.071,0.399 -1.604,0.6 -0.65,0.245 -1.298,0.493 -1.943,0.743 -0.531,0.207 -1.061,0.416 -1.588,0.626 -0.638,0.254 -1.273,0.511 -1.905,0.77 -0.524,0.215 -1.046,0.431 -1.566,0.649 -0.628,0.264 -1.252,0.531 -1.875,0.8 -0.513,0.222 -1.025,0.444 -1.533,0.669 -0.624,0.276 -1.243,0.556 -1.861,0.837 -0.497,0.226 -0.994,0.452 -1.487,0.681 -0.62,0.289 -1.234,0.582 -1.848,0.876 -0.481,0.23 -0.963,0.459 -1.44,0.693 -0.624,0.306 -1.241,0.617 -1.859,0.929 -0.455,0.229 -0.913,0.457 -1.364,0.689 -0.642,0.331 -1.276,0.668 -1.91,1.005 -0.416,0.221 -0.836,0.439 -1.249,0.662 -0.699,0.379 -1.389,0.765 -2.078,1.151 -0.338,0.189 -0.681,0.375 -1.016,0.566 -1.021,0.581 -2.031,1.169 -3.029,1.767 -33.216,19.874 -52.307,47.305 -53.753,77.208 -0.003,0.05 -0.01,0.164 -0.012,0.213 -0.058,1.262 -0.086,2.391 -0.086,3.453 0,27.939 16.526,52.665 41.763,63.484 v 139.901 c 0,30.069 24.463,54.533 54.533,54.533 h 169.374 c 1.046,0 2.083,-0.037 3.115,-0.095 0.244,-0.014 0.486,-0.038 0.729,-0.056 0.818,-0.057 1.632,-0.13 2.44,-0.223 0.211,-0.025 0.421,-0.053 0.631,-0.08 0.876,-0.111 1.745,-0.243 2.607,-0.396 0.123,-0.022 0.246,-0.043 0.368,-0.066 0.996,-0.183 1.982,-0.391 2.958,-0.628 h 125.623 c 30.069,0 54.533,-24.463 54.533,-54.532 V 245.589 C 487.383,234.771 503.91,210.045 503.91,182.106 503.909,114.421 432.869,70.687 322.927,70.687 Z" id="path132"/>
</g><g id="Layer_3" transform="translate(-657.0099,-107.06371)">
	<path fill="#fcdea2" d="m 356.302,183.649 c 0,-63.753 -69.775,-102.283 -171.847,-102.283 -100.109,0 -169.143,44.97 -171.761,99.091 -0.003,0.053 -0.007,0.106 -0.009,0.159 -0.046,1.008 -0.077,2.018 -0.077,3.033 0,26.772 17.546,49.438 41.763,57.148 v 146.237 c 0,25.072 20.325,45.397 45.397,45.397 h 169.374 c 25.072,0 45.397,-20.325 45.397,-45.397 V 240.797 c 24.217,-7.71 41.763,-30.377 41.763,-57.148 z" id="path135"/>
</g></g></svg>